<svg width="150" height="64" viewBox="0 0 150 64" fill="none" xmlns="http://www.w3.org/2000/svg">
<g clip-path="url(#clip0_5141_20904)">
<path d="M0.224946 45.0651C0.208488 45.0691 0.195521 45.0646 0.185547 45.0512V44.6033C0.202005 44.6088 0.217964 44.6078 0.233424 44.6008C0.230432 44.7554 0.227938 44.91 0.224946 45.0651Z" fill="white"/>
<path d="M14.3885 63.9566C14.5072 63.9661 14.6344 63.9047 14.7421 64H14.393C14.378 63.992 14.3725 63.9825 14.376 63.9726C14.38 63.9621 14.384 63.9566 14.3885 63.9566Z" fill="white"/>
<path d="M15.7393 63.9999C15.848 63.9066 15.9747 63.9635 16.0938 63.958C16.1058 63.969 16.1088 63.9789 16.1033 63.9874C16.0983 63.9954 16.0933 63.9994 16.0884 63.9994H15.7393V63.9999Z" fill="white"/>
<path d="M14.3885 63.9567C14.391 63.9712 14.3925 63.9856 14.393 64.0001H14.0938C14.18 63.9058 14.2892 63.9647 14.388 63.9567H14.3885Z" fill="white"/>
<path d="M16.0879 64C16.0894 63.986 16.0914 63.9721 16.0934 63.9581C16.1926 63.9636 16.3003 63.9052 16.3871 64H16.0879Z" fill="white"/>
<path d="M91.7844 52.5858C91.7844 54.4331 91.7769 56.2798 91.7874 58.1271C91.7929 59.0707 91.8338 60.0143 91.8552 60.9578C91.8692 61.5713 91.8293 62.1827 91.765 62.7921C91.732 63.1043 91.5954 63.2769 91.2907 63.3118C90.5486 63.3966 89.8025 63.4295 89.0549 63.416C88.837 63.412 88.7308 63.2669 88.7068 63.0624C88.647 62.5522 88.6335 62.0395 88.616 61.5269C88.5148 58.6039 88.5442 55.6789 88.5108 52.7554C88.5018 51.9764 88.5442 51.1984 88.5253 50.4199C88.5233 50.3286 88.5622 50.2005 88.423 50.1725C88.2724 50.1426 88.2834 50.2842 88.253 50.368C87.871 51.4168 87.7109 52.516 87.5283 53.6087C87.0925 56.221 86.7902 58.8532 86.3249 61.461C86.2292 61.9982 86.106 62.5308 85.9778 63.0614C85.8816 63.4589 85.6936 63.5626 85.2886 63.5362C84.7669 63.5023 84.2443 63.4878 83.7216 63.4744C83.2473 63.4624 83.0618 63.3103 82.9865 62.844C82.801 61.6969 82.775 60.5364 82.6933 59.3809C82.58 57.78 82.5521 56.1701 82.2399 54.5892C82.025 53.501 81.6913 52.4417 81.4155 51.368C81.4116 51.352 81.4056 51.336 81.3996 51.3211C81.3337 51.1565 81.2365 50.9391 81.0749 50.9595C80.9442 50.976 81.0196 51.2193 81.0201 51.3585C81.0265 52.8083 81.0405 54.258 81.0535 55.7078C81.0734 57.9032 81.0944 60.0985 81.1168 62.2939C81.1193 62.5168 81.1557 62.7378 81.1193 62.9622C81.0879 63.1557 80.9916 63.2654 80.7941 63.2689C80.0221 63.2824 79.2501 63.3053 78.4786 63.2983C78.0627 63.2943 77.8617 63.0639 77.8562 62.648C77.8347 60.9997 77.8133 59.351 77.7983 57.7027C77.7744 55.06 77.7534 52.4173 77.736 49.774C77.726 48.2415 77.8352 46.7124 77.914 45.1833C77.9335 44.8073 78.1624 44.5988 78.5379 44.5829C79.5508 44.5395 80.5632 44.5649 81.5751 44.6113C82.2439 44.6422 82.5855 44.935 82.7356 45.5883C83.3127 48.1038 83.8687 50.6244 84.4916 53.1289C84.5375 53.314 84.5934 53.495 84.6906 53.6621C84.7545 53.7713 84.8093 53.7867 84.8836 53.671C84.9879 53.5085 85.0542 53.3319 85.1051 53.1469C85.8103 50.5785 86.5159 48.0101 87.2221 45.4422C87.3907 44.8292 87.5114 44.7505 88.1507 44.7569C89.1721 44.7674 90.193 44.7505 91.2129 44.6906C91.73 44.6602 91.8817 44.7913 91.8692 45.308C91.8258 47.1044 91.7685 48.8998 91.7261 50.6962C91.7111 51.3256 91.7236 51.9559 91.7236 52.5858H91.7844Z" fill="white"/>
<path d="M105.752 55.9242C105.752 53.7443 105.755 51.5644 105.75 49.3845C105.747 48.0754 105.731 46.7667 105.723 45.4576C105.72 45.0362 105.585 44.6457 105.459 44.2512C105.313 43.7929 105.385 43.6916 105.857 43.6437C106.379 43.5904 106.903 43.6173 107.425 43.6213C107.75 43.6238 107.996 43.7819 108.125 44.0911C108.211 44.2971 108.295 44.504 108.375 44.712C108.432 44.8601 108.499 44.8895 108.623 44.7674C108.794 44.5988 108.966 44.4292 109.156 44.2826C110.593 43.1744 113.476 43.1236 114.79 45.0491C115.239 45.7064 115.383 46.4381 115.396 47.2141C115.419 48.5866 115.217 49.9376 115.021 51.2901C114.778 52.9693 114.537 54.6485 114.297 56.3277C114.136 57.4583 113.978 58.5894 113.82 59.7205C113.788 59.9499 113.771 60.1798 113.793 60.4127C113.839 60.8795 114.12 61.1922 114.593 61.2086C115.438 61.2386 116.285 61.26 117.132 61.2296C117.928 61.2007 118.727 61.2226 119.524 61.2046C121.673 61.1563 123.822 61.0994 125.971 61.0436C127.099 61.0141 128.227 60.9807 129.355 60.9488C130.583 60.9144 131.811 60.8755 133.039 60.8476C133.554 60.8356 133.723 60.9912 133.788 61.5014C133.839 61.9118 133.899 62.3223 133.929 62.7342C133.97 63.3122 133.694 63.6065 133.116 63.6194C132.319 63.6379 131.522 63.6474 130.725 63.6578C129.073 63.6798 127.42 63.6838 125.769 63.7257C124.514 63.7576 123.261 63.7411 122.007 63.7551C120.055 63.776 118.103 63.7905 116.152 63.788C115.123 63.7865 114.094 63.7521 113.065 63.7172C112.263 63.6903 111.686 63.2913 111.314 62.5926C110.919 61.8525 110.813 61.051 110.877 60.2311C111.076 57.6553 111.43 55.0958 111.714 52.5284C111.865 51.1624 112.033 49.7984 112.183 48.4329C112.23 48.005 112.237 47.5742 112.161 47.1453C112.041 46.4805 111.726 46.1872 111.052 46.1683C110.459 46.1518 109.877 46.2496 109.317 46.447C108.914 46.5892 108.691 46.8899 108.615 47.3068C108.567 47.5692 108.56 47.834 108.558 48.0988C108.555 48.3891 108.558 48.6788 108.557 48.9691C108.55 51.513 108.544 54.057 108.535 56.6015C108.528 58.723 108.518 60.8441 108.507 62.9656C108.507 63.0728 108.499 63.1806 108.486 63.2873C108.432 63.7262 108.25 63.9042 107.806 63.9167C107.358 63.9291 106.909 63.9277 106.461 63.9172C106.036 63.9072 105.812 63.6868 105.769 63.2579C105.757 63.1427 105.754 63.0265 105.754 62.9103C105.753 60.5812 105.754 58.2522 105.754 55.9232L105.752 55.9242Z" fill="white"/>
<path d="M139.652 47.8396C139.597 47.1349 139.654 46.4322 139.682 45.729C139.701 45.2482 139.879 45.0827 140.353 45.0458C140.924 45.0014 141.494 44.958 142.068 44.9595C142.493 44.9605 142.662 45.1121 142.668 45.541C142.684 46.5434 142.741 47.5428 142.812 48.5428C142.928 50.1945 143.04 51.8468 143.149 53.4985C143.193 54.1593 143.223 54.8211 143.261 55.482C143.266 55.5727 143.284 55.6625 143.293 55.7528C143.382 56.6814 143.776 56.8519 144.652 56.9327C144.881 56.9537 145.114 56.9442 145.347 56.8998C146.234 56.7312 146.603 56.3213 146.645 55.4141C146.676 54.7588 146.59 54.1075 146.549 53.4552C146.482 52.3809 146.388 51.3087 146.32 50.2344C146.229 48.7886 146.103 47.3439 146.104 45.8931C146.104 45.7026 146.112 45.5131 146.143 45.3235C146.185 45.0682 146.326 44.9276 146.582 44.8912C147.019 44.8288 147.46 44.8642 147.9 44.8458C148.132 44.8358 148.365 44.8413 148.597 44.8448C148.924 44.8493 149.033 44.9445 149.056 45.2682C149.11 46.0447 149.162 46.8207 149.241 47.5952C149.372 48.8884 149.496 50.1821 149.617 51.4762C149.698 52.342 149.753 53.2098 149.761 54.0796C149.774 55.5617 149.769 57.0439 149.791 58.5261C149.798 58.9645 149.804 59.4034 149.814 59.8423C149.827 60.3928 149.732 60.9335 149.62 61.4646C149.369 62.654 148.514 63.4001 147.257 63.6006C146.312 63.7512 145.36 63.7961 144.405 63.826C143.126 63.8664 141.849 63.822 140.57 63.7921C140.239 63.7841 139.907 63.7682 139.576 63.7417C139.017 63.6969 138.517 63.4969 138.058 63.1737C136.712 62.2251 135.722 61.0232 135.315 59.3979C135.213 58.9889 135.113 58.579 135.018 58.1681C134.909 57.6938 135.053 57.4444 135.524 57.3078C136.17 57.1202 136.835 57.0983 137.499 57.1407C137.886 57.1651 138.133 57.4614 138.183 57.9032C138.308 59.0069 138.758 59.934 139.662 60.6138C140.29 61.0851 141.01 61.3579 141.76 61.5559C143.218 61.9409 144.668 61.8785 146.109 61.4616C146.554 61.3329 146.733 61.0965 146.757 60.6347C146.791 59.9944 146.72 59.3625 146.605 58.7336C146.583 58.6109 146.553 58.4783 146.388 58.5685C145.798 58.8917 145.158 58.9316 144.506 58.9451C143.825 58.9595 143.144 58.986 142.474 58.8403C141.113 58.5451 140.327 57.6419 140.172 56.2624C139.909 53.9324 139.758 51.5954 139.655 49.2544C139.634 48.7837 139.652 48.3109 139.652 47.8391L139.652 47.8396Z" fill="white"/>
<path d="M120.629 47.9054C120.629 49.197 120.629 50.4892 120.629 51.7809C120.629 51.8058 120.632 51.8308 120.633 51.8552C120.648 52.2118 120.745 52.3789 120.963 52.4258C121.174 52.4706 121.405 52.329 121.544 52.0462C121.824 51.4782 121.971 50.8658 122.126 50.2563C122.523 48.7018 122.808 47.1204 123.27 45.5818C123.354 45.3045 123.441 45.0283 123.599 44.7809C123.822 44.4333 124.127 44.2448 124.551 44.2542C125.057 44.2657 125.563 44.2084 126.07 44.2488C126.136 44.2542 126.203 44.2577 126.268 44.2692C126.853 44.3759 126.991 44.6487 126.725 45.1804C126.264 46.1 126.063 47.0999 125.812 48.0854C125.477 49.399 125.222 50.7336 124.777 52.0188C124.662 52.3504 124.5 52.6557 124.275 52.9265C123.983 53.2796 123.939 53.6621 124.176 54.0536C124.614 54.7757 125.045 55.5019 125.455 56.2405C125.607 56.5148 125.874 56.5965 126.164 56.6359C127.09 56.7616 128.02 56.7317 128.949 56.7127C129.902 56.6933 130.855 56.6394 131.805 56.5402C132.036 56.5162 132.267 56.4858 132.499 56.4729C132.88 56.4509 133.044 56.5532 133.205 56.8958C133.401 57.3152 133.467 57.7496 133.336 58.1999C133.216 58.6159 132.923 58.8542 132.488 58.8837C130.79 58.9994 129.089 59.0497 127.387 59.0138C126.475 58.9944 125.564 58.9415 124.67 58.7286C124.259 58.6303 123.951 58.4164 123.719 58.0663C123.257 57.3681 122.83 56.6494 122.432 55.9133C122.165 55.4181 121.757 55.1338 121.195 55.065C120.748 55.0101 120.56 55.1413 120.483 55.5807C120.423 55.9253 120.448 56.2749 120.44 56.622C120.429 57.1686 120.442 57.7157 120.436 58.2628C120.429 58.933 120.229 59.142 119.57 59.2378C119.104 59.3056 118.643 59.2587 118.179 59.2408C118.006 59.2343 117.915 59.1216 117.846 58.9809C117.706 58.6961 117.705 58.3859 117.698 58.0822C117.666 56.6833 117.647 55.2839 117.616 53.8845C117.569 51.7161 117.524 49.5471 117.463 47.3792C117.445 46.7344 117.434 46.0885 117.373 45.4447C117.325 44.933 117.515 44.723 118.025 44.6432C118.527 44.5649 119.029 44.523 119.537 44.5455C120.204 44.5754 120.559 44.9215 120.568 45.5948C120.579 46.3648 120.571 47.1353 120.571 47.9059H120.629L120.629 47.9054Z" fill="white"/>
<path d="M65.1011 50.3416C65.1011 52.919 65.0976 55.4958 65.1046 58.0732C65.1056 58.4772 65.0927 58.8846 65.1859 59.2851C65.2582 59.5938 65.4433 59.7788 65.7565 59.8292C66.134 59.8901 66.514 59.8975 66.8965 59.8906C67.884 59.8731 68.8715 59.8522 69.8529 60.0117C70.1641 60.0626 70.3287 60.2182 70.3925 60.5329C70.5058 61.0925 70.4848 61.6545 70.4624 62.2166C70.4519 62.4784 70.2574 62.6111 70.023 62.6565C69.7716 62.7053 69.5138 62.7422 69.258 62.7457C67.6281 62.7672 66.0048 62.6884 64.4044 62.3477C63.2349 62.0989 62.638 61.3708 62.5467 60.1808C62.417 58.4877 62.3761 56.7905 62.2834 55.0964C62.2031 53.6326 62.1592 52.1679 62.1313 50.7027C62.1118 49.6843 62.0859 48.6659 62.0594 47.648C62.051 47.3248 61.9617 47.2346 61.634 47.2425C60.3718 47.2735 59.109 47.2625 57.8473 47.2301C56.8688 47.2051 55.8908 47.1513 54.9123 47.1164C54.6889 47.1084 54.465 47.1318 54.241 47.1323C53.9189 47.1328 53.7877 47.0221 53.7338 46.7069C53.654 46.2416 53.6042 45.7723 53.5812 45.3005C53.5628 44.9245 53.6605 44.7988 54.0415 44.7744C54.4555 44.7479 54.8714 44.7584 55.2868 44.7539C57.3381 44.7305 59.3888 44.7076 61.44 44.6836C62.3018 44.6731 62.4679 44.4712 62.3293 43.6248C62.2824 43.3391 62.235 43.0523 62.2106 42.764C62.1801 42.399 62.2948 42.2304 62.6464 42.1516C63.3147 42.002 63.9975 41.9751 64.6772 42.0219C65.154 42.0554 65.3276 42.3027 65.2872 42.778C65.2527 43.1825 65.2163 43.5864 65.1774 43.9899C65.1365 44.4113 65.2832 44.5719 65.7101 44.5609C67.0132 44.5275 68.3169 44.5041 69.621 44.5116C70.5087 44.517 70.6833 44.7006 70.6379 45.5893C70.6259 45.8217 70.6025 46.0511 70.5536 46.2785C70.4768 46.6366 70.2504 46.8311 69.8928 46.8954C69.5637 46.9548 69.233 46.9628 68.9009 46.9623C67.9962 46.9608 67.09 46.9383 66.1988 47.1423C66.1908 47.1443 66.1824 47.1443 66.1744 47.1458C65.2069 47.3687 65.0642 47.5458 65.0642 48.5262C65.0642 49.1312 65.0642 49.7366 65.0642 50.3416H65.1016H65.1011Z" fill="white"/>
<path d="M21.3597 62.3557C21.3148 61.818 21.2046 61.2924 21.0879 60.7677C20.9961 60.3563 20.8784 60.278 20.4595 60.3244C20.3443 60.3368 20.2311 60.3658 20.1179 60.3897C18.8292 60.664 17.547 60.9752 16.2293 61.0869C14.9177 61.1981 13.6111 61.2056 12.3239 60.869C10.5564 60.4072 9.34103 59.3718 8.85977 57.567C8.79394 57.3196 8.71165 57.0757 8.63136 56.8323C8.4987 56.4299 8.4972 56.4319 8.86925 56.2463C9.96792 55.6993 10.6941 54.8524 10.924 53.6326C11.3364 51.4442 11.4167 49.2418 11.089 47.0375C10.8711 45.5718 9.87117 44.5768 8.4179 44.2925C7.81944 44.1753 7.212 44.1843 6.60805 44.1674C5.55426 44.1384 4.49997 44.1584 3.44567 44.1833C2.64922 44.2023 1.85177 44.1983 1.05481 44.2157C0.731146 44.2227 0.39451 44.2317 0.23492 44.6008C0.187542 44.7479 0.224447 44.899 0.212478 45.0481C0.229434 45.4695 0.253872 45.8909 0.259358 46.3119C0.290278 48.8633 0.212977 51.4153 0.310726 53.9662C0.331672 54.5118 0.332171 55.0584 0.34813 55.6045C0.388526 56.9695 0.447375 58.3335 0.505226 59.698C0.554599 60.856 0.609458 62.0125 0.709701 63.1671C0.750097 63.6349 0.931132 63.8119 1.4099 63.8214C2.00787 63.8334 2.60583 63.8269 3.2038 63.8234C3.29556 63.8229 3.38583 63.8099 3.4756 63.7925C3.95836 63.6992 4.13939 63.4818 4.14937 62.991C4.15984 62.4853 4.11196 61.9811 4.10548 61.4769C4.08802 60.0436 4.099 58.6098 4.0995 57.176C4.0995 57.0847 4.0995 56.9939 4.11146 56.9032C4.1349 56.7291 4.23565 56.6244 4.4087 56.6284C4.97325 56.6418 5.47945 56.7785 5.77769 57.3216C6.24499 58.1724 6.69084 59.0297 6.98259 59.9633C7.35463 61.1532 8.12715 62.042 9.17745 62.6978C10.1938 63.3326 11.3145 63.6748 12.4894 63.8698C12.9732 63.9501 13.4624 63.9346 13.9457 63.9994H14.0953C14.1931 63.9456 14.2983 63.987 14.3995 63.974C14.5137 63.987 14.6324 63.9451 14.7437 63.9994H15.7406C15.8518 63.9451 15.9705 63.9865 16.0852 63.974C16.186 63.987 16.2912 63.9456 16.3889 63.9994H16.5385C16.7969 63.9077 17.0692 63.9256 17.3355 63.9017C18.4437 63.8014 19.5433 63.6458 20.6266 63.3915C21.1871 63.2598 21.4085 62.9252 21.3607 62.3552L21.3597 62.3557ZM7.77505 52.7149C7.71172 53.2495 7.34616 53.6176 6.81502 53.7059C6.01956 53.8385 5.21563 53.8704 4.41219 53.9019C4.08453 53.9148 3.93691 53.7827 3.91996 53.4505C3.87956 52.6411 3.87956 51.8287 3.81423 51.0218C3.71249 49.7595 3.73693 48.4963 3.73294 47.233C3.73194 46.8744 3.73344 46.8789 4.08902 46.83C4.85805 46.7253 5.62458 46.6924 6.38562 46.8904C6.40158 46.8944 6.41804 46.8974 6.434 46.9013C7.49178 47.1951 7.78653 47.5746 7.80348 48.6937C7.81296 49.3146 7.80498 49.9356 7.80498 50.5565C7.80149 51.2756 7.85984 51.9978 7.77505 52.7144V52.7149Z" fill="white"/>
<path d="M103.589 53.0372C103.573 52.0263 103.586 51.0154 103.586 50.0045C103.586 48.9936 103.586 47.8999 103.586 46.8471C103.586 46.2905 103.44 45.7773 103.083 45.3469C102.432 44.5634 101.606 44.0882 100.582 43.953C99.4708 43.8059 98.3631 43.8513 97.2545 43.966C96.6121 44.0323 95.9952 44.1724 95.4611 44.5654C94.7444 45.0931 94.4158 45.8451 94.2018 46.673C93.9809 47.5278 94.0108 48.3941 94.0323 49.2644C94.0642 50.564 94.0707 51.8647 94.0856 53.1649C94.1036 54.7383 94.1136 56.3123 94.138 57.8857C94.151 58.7051 94.1814 59.5245 94.2153 60.3434C94.2402 60.9394 94.3774 61.5084 94.7255 62.0061C95.2955 62.8211 96.1304 63.224 97.0625 63.4499C98.3372 63.7591 99.6124 63.6833 100.887 63.4205C102.276 63.1347 103.089 62.2804 103.407 60.9254C103.53 60.4043 103.51 59.8701 103.514 59.343C103.527 57.2409 103.622 55.1403 103.588 53.0372H103.589ZM100.546 50.0788H100.48C100.48 51.9664 100.491 53.8541 100.477 55.7417C100.467 57.0075 100.424 58.2732 100.396 59.5395C100.376 60.4187 99.9281 60.8755 99.0464 60.9259C98.6654 60.9479 98.2868 60.9848 97.9053 60.9244C97.4445 60.8511 97.1592 60.5993 97.0435 60.1469C96.9134 59.6367 96.8859 59.1166 96.8929 58.5944C96.9273 56.02 96.9657 53.4461 97.0071 50.8722C97.0251 49.7551 97.055 48.6385 97.077 47.5213C97.0884 46.9353 97.3163 46.6625 97.9013 46.6077C98.5651 46.5454 99.2284 46.5932 99.8857 46.699C100.162 46.7433 100.343 46.9234 100.435 47.1852C100.519 47.4216 100.548 47.667 100.547 47.9178C100.544 48.6385 100.546 49.3591 100.546 50.0793V50.0788Z" fill="white"/>
<path d="M33.4576 52.6846C33.4616 51.7595 33.2915 50.8783 32.8481 50.0534C32.0287 48.5278 30.4692 47.8151 28.8295 48.2395C28.1696 48.4106 27.5926 48.7542 27.0301 49.1253C26.7727 49.2953 26.7368 49.2789 26.7274 48.9637C26.7054 48.2435 26.6919 47.5234 26.678 46.8032C26.6665 46.2068 26.6605 45.6108 26.6501 45.0143C26.6466 44.8054 26.5942 44.6074 26.5164 44.4124C26.4346 44.2064 26.3004 44.1236 26.075 44.1381C25.4945 44.1755 24.9195 44.2508 24.3485 44.359C23.9435 44.4358 23.7545 44.6892 23.7749 45.1011C23.8822 47.2501 24.0088 49.3986 24.0881 51.5485C24.1654 53.6417 24.1993 55.7368 24.2417 57.8314C24.2717 59.2966 24.2786 60.7624 24.3634 62.2256C24.3864 62.6181 24.529 62.8166 24.8621 62.9069C25.311 63.0281 25.6077 62.9378 25.8197 62.5982C25.9513 62.3877 26.0596 62.1633 26.1887 61.9508C26.4211 61.5688 26.6146 61.5399 26.9338 61.8501C27.5787 62.4765 28.3332 62.8804 29.2334 62.9827C30.186 63.0909 31.0966 62.9902 31.8622 62.3413C32.5265 61.7778 32.8521 61.0257 32.9883 60.1864C33.3364 58.0479 33.4237 55.8899 33.4576 53.7279C33.4576 53.3798 33.4566 53.0317 33.4576 52.6836V52.6846ZM30.1915 58.8638C30.175 59.7964 29.4519 60.4736 28.5197 60.4771C27.6196 60.4801 26.9338 59.8363 26.9134 58.8982C26.8859 57.6733 26.9024 56.447 26.9094 55.2216C26.9139 54.3937 26.9253 53.5659 26.8864 52.7385C26.8296 51.5336 27.6211 50.6489 28.7477 50.6718C29.6279 50.6898 30.1939 51.2568 30.1964 52.132C30.1999 53.2417 30.1974 54.3508 30.1969 55.4605C30.1969 56.5951 30.2124 57.7297 30.192 58.8638H30.1915Z" fill="white"/>
<path d="M46.0273 46.3643C45.7979 45.1554 44.7391 44.1959 43.4155 43.952C42.6525 43.8113 41.8944 43.9006 41.1329 43.934C40.0392 43.9824 38.943 43.9794 37.8578 44.154C36.3058 44.4038 35.2355 45.4217 34.9099 46.9588C34.7542 47.6934 34.862 48.4295 34.8989 49.1621C35.0096 51.344 35.1437 53.5249 35.2764 55.7063C35.3532 56.97 35.3986 58.2358 35.5258 59.4966C35.6719 60.9483 36.4683 61.8625 37.8388 62.2929C38.947 62.6405 40.089 62.7831 41.3209 62.7697C41.9652 62.7746 42.6754 62.7148 43.3826 62.6086C44.5531 62.432 45.353 61.8001 45.767 60.6885C45.945 60.2102 46.0363 59.713 46.0472 59.2068C46.0802 57.6917 46.1136 56.1761 46.1171 54.661C46.1226 52.3998 46.1111 50.1381 46.0856 47.8769C46.0802 47.3737 46.1221 46.8635 46.0278 46.3648L46.0273 46.3643ZM43.0255 58.755C42.9457 59.6247 42.5996 59.9968 41.7363 60.0531C40.9902 60.102 40.2432 60.0696 39.513 59.8801C38.6393 59.6532 38.1605 59.0766 38.1246 58.1715C38.0887 57.2618 38.0712 56.3511 38.0553 55.441C38.0408 54.6131 38.1056 53.7782 38.0184 52.9589C37.8393 51.2792 37.9855 49.6005 37.9366 47.9223C37.9136 47.1478 38.0712 46.6595 39.0941 46.6136C39.8646 46.5792 40.6322 46.493 41.4042 46.487C41.5368 46.486 41.671 46.487 41.8017 46.5069C42.633 46.6336 43.0021 47.0246 43.0115 47.8724C43.029 49.4214 43.0165 50.9705 43.0165 52.5195C43.021 52.5195 43.0255 52.5195 43.0305 52.5195C43.0305 53.9693 43.029 55.419 43.031 56.8688C43.032 57.4972 43.0839 58.1256 43.026 58.7545L43.0255 58.755Z" fill="white"/>
<path d="M60.0657 51.8467C60.0478 51.4742 59.931 51.1335 59.7306 50.8203C59.0269 49.7227 57.99 49.2075 56.7168 49.188C55.6725 49.1721 54.6272 49.2374 53.5824 49.2623C52.745 49.2823 51.9062 49.2763 51.0723 49.377C50.2065 49.4818 49.3996 49.7336 48.7548 50.354C47.9154 51.162 47.6586 52.1828 47.7329 53.303C47.8605 55.227 48.0625 57.1451 48.2555 59.0632C48.3094 59.5988 48.3727 60.1344 48.6161 60.6266C49.1507 61.7074 50.0813 62.2405 51.2199 62.453C53.0422 62.7926 54.883 62.8051 56.7253 62.6933C57.5078 62.646 58.2424 62.42 58.8553 61.8969C59.6558 61.2131 59.9505 60.305 60.0069 59.2951C60.0936 57.749 60.1056 56.201 60.1186 54.653C60.1186 53.7174 60.1116 52.7818 60.0662 51.8467H60.0657ZM57.1103 53.1129C57.0145 54.1792 57.0849 55.249 57.0385 56.3162C57.0026 57.1436 57.0584 57.9725 56.9766 58.7988C56.8958 59.6128 56.455 60.0307 55.6346 60.0736C54.5229 60.1324 53.4113 60.1683 52.3006 60.0691C52.0782 60.0491 51.8548 60.0197 51.6369 59.9718C51.2553 59.888 51.0304 59.6437 50.9795 59.2552C50.8738 58.4487 50.8833 57.6363 50.8653 56.9651C50.8653 56.3526 50.9012 55.8773 50.8574 55.409C50.781 54.5986 50.8324 53.7887 50.8185 52.9793C50.8075 52.328 51.0269 52.0666 51.6638 51.9205C52.3445 51.7639 53.0333 51.8143 53.7215 51.8432C54.6167 51.8811 55.5129 51.905 56.4081 51.9469C56.819 51.9659 56.9926 52.1389 57.0809 52.5444C57.1223 52.7339 57.1277 52.9234 57.1108 53.1129H57.1103Z" fill="white"/>
<path d="M21.8915 55.5232C21.87 55.1143 21.7274 54.9676 21.3189 54.9801C20.8711 54.9936 20.4237 55.021 19.9764 55.0494C19.6871 55.0679 19.4921 55.2235 19.4203 55.5023C19.2198 56.2768 18.6573 56.6154 17.9246 56.7256C16.8075 56.8942 16.048 56.3202 15.8854 55.208C15.8435 54.9213 15.825 54.63 15.7607 54.3487C15.7088 54.1218 15.8016 54.069 15.9951 54.0605C16.3352 54.0455 16.6754 54.0316 17.014 54.0011C17.8568 53.9248 18.7046 53.9014 19.54 53.7538C20.6207 53.5628 21.083 53.061 21.2297 51.9768C21.3508 51.0791 21.3638 50.1789 21.3429 49.2768C21.3199 48.2823 21.2476 47.2919 21.0312 46.3179C20.702 44.8362 19.4767 43.9175 17.9576 44.0163C17.3037 44.0587 16.6509 44.1205 15.9966 44.1574C15.3368 44.1943 14.7608 44.3843 14.3483 44.9374C14.099 45.272 13.898 45.6316 13.7429 46.0176C13.0247 47.805 12.7843 49.6752 12.7804 51.5853C12.7759 53.1393 12.9474 54.6769 13.2616 56.1965C13.5963 57.8158 14.7378 58.7903 16.3961 58.8826C17.2673 58.931 18.1361 58.8457 19.0064 58.7893C20.8536 58.6701 21.9693 57.0009 21.892 55.5232H21.8915ZM15.5248 52.1968C15.469 50.6936 15.2939 49.192 15.44 47.6854C15.456 47.5208 15.4779 47.3567 15.5074 47.1941C15.5921 46.7213 15.8784 46.4326 16.3377 46.3059C17.0738 46.1029 17.7521 46.1423 18.2932 46.7662C18.4727 46.9732 18.5765 47.2016 18.5859 47.4839C18.6069 48.1043 18.6493 48.7237 18.6368 49.2902C18.6438 50.1395 18.6253 50.9315 18.4817 51.718C18.4094 52.1135 18.2109 52.3175 17.802 52.3793C17.1855 52.4721 16.5661 52.5159 15.9462 52.5583C15.6555 52.5783 15.5353 52.4785 15.5248 52.1968Z" fill="white"/>
<path d="M137.055 50.8297C136.494 50.7629 135.93 50.737 135.365 50.7789C135.101 50.7983 134.912 50.931 134.839 51.1968C134.765 51.4601 134.586 51.6387 134.366 51.7828C133.891 52.095 133.368 52.2202 132.802 52.1603C131.969 52.072 131.424 51.6277 131.269 50.8991C131.208 50.6143 131.218 50.3225 131.217 50.0328C131.217 49.6019 131.218 49.5894 131.662 49.5994C132.808 49.6253 133.953 49.6288 135.098 49.5715C136.183 49.5166 137.05 48.8139 137.285 47.7935C137.611 46.3767 136.549 44.709 135.123 44.4042C134.651 44.303 134.169 44.2781 133.689 44.2621C132.778 44.2322 131.867 44.1609 130.961 44.3509C129.574 44.6416 128.651 45.6056 128.492 47.01C128.407 47.7666 128.407 48.5306 128.415 49.3894C128.387 49.9141 128.434 50.5345 128.465 51.1549C128.542 52.6316 129.321 53.5991 130.688 53.8425C132.133 54.0998 133.59 54.1657 135.05 53.9507C136.403 53.7512 137.415 52.5708 137.39 51.2437C137.385 51.0068 137.294 50.8587 137.055 50.8307V50.8297ZM132.138 46.3797C132.648 46.1677 133.175 46.0849 133.717 46.2525C134.246 46.4161 134.576 46.826 134.549 47.2679C134.521 47.7142 134.116 48.0948 133.575 48.184C133.204 48.2454 132.829 48.1895 132.448 48.2249C132.165 48.2249 131.875 48.2334 131.584 48.2224C131.263 48.2105 131.191 48.1282 131.189 47.8135C131.185 47.1297 131.502 46.642 132.137 46.3787L132.138 46.3797Z" fill="white"/>
</g>
<path d="M69.4837 33.9596C66.609 33.869 61.4105 33.6086 60.3525 33.5024C58.6188 33.328 57.3837 32.6059 56.8349 31.4467C56.4526 30.6385 56.3652 30.0126 56.2438 27.2153C56.1715 25.5464 56.1648 19.2151 56.2333 17.8C56.2772 16.8974 56.2845 16.861 56.4581 16.6867C56.6351 16.5089 56.6513 16.5061 57.6498 16.4737C58.4534 16.4474 58.6744 16.4206 58.7234 16.3429C58.7568 16.2887 58.7696 16.0087 58.7512 15.7209C58.6638 14.3571 58.611 11.9237 58.656 11.3581C58.7201 10.5549 58.8586 10.1419 59.1915 9.76184C59.541 9.36278 60.0124 9.09954 60.6141 8.96708C60.8829 8.90784 61.14 8.83015 61.1846 8.79438C61.2464 8.74519 61.2658 8.26566 61.2658 6.80245C61.2658 4.58528 61.3193 4.18119 61.725 3.33333C61.9087 2.94937 62.0729 2.71631 62.3144 2.49833C62.7441 2.11045 63.4665 1.75779 64.0014 1.67451C64.6554 1.57279 69.108 1.64712 75.5176 1.86677C79.6474 2.00818 84.1679 2.07413 84.2636 1.9942C84.3332 1.93608 84.356 1.72537 84.3566 1.12343C84.3566 0.686369 84.3794 0.296814 84.4055 0.257691C84.4662 0.167148 85.6128 -0.0446759 85.7519 0.00841994C85.8404 0.042513 85.8554 0.192299 85.8554 1.02003C85.8554 1.70916 85.8782 2.00594 85.9345 2.04059C85.9779 2.06742 86.5239 2.11213 87.1472 2.14008C88.3806 2.19541 88.5008 2.21553 88.5888 2.3804C88.6778 2.54808 88.4925 3.51889 88.3511 3.62341C88.2643 3.68768 88.0311 3.69886 87.3882 3.66979C86.9218 3.64856 86.4209 3.6167 86.2751 3.59881C85.7931 3.54013 85.8048 3.47809 85.7758 6.21001C85.7564 8.05607 85.7692 8.63509 85.8304 8.68595C85.8888 8.73458 86.0653 8.59653 86.486 8.17232C86.8027 7.85318 87.2435 7.48263 87.465 7.34794C89.1659 6.31676 90.888 6.74432 91.9177 8.45345C92.231 8.97323 92.7236 10.3364 92.9251 11.239C93.1783 12.3742 93.2262 13.0331 93.1566 14.3946C93.1227 15.0519 93.0664 16.1523 93.0308 16.8403C92.9952 17.5284 92.9206 18.4416 92.865 18.8708C92.7364 19.8601 92.2399 22.3523 92.019 23.1152C91.6149 24.5124 90.8017 25.7968 89.8978 26.463C89.5116 26.748 88.7324 27.0605 88.266 27.1175C87.4873 27.2125 86.5985 26.8855 85.9194 26.254C85.4764 25.842 85.34 25.8331 85.3228 26.2148C85.3105 26.4904 85.3116 26.4775 85.2426 27.1175C85.1302 28.1637 84.7412 29.5655 84.3783 30.2356C84.1651 30.629 83.805 30.9571 83.3464 31.1745C82.7286 31.468 82.0779 31.5434 79.8227 31.5837C78.6745 31.6043 77.6915 31.644 77.6376 31.672C77.5836 31.6999 77.4845 31.8804 77.4172 32.0727C77.116 32.9323 76.4459 33.5549 75.4853 33.8673C75.178 33.9674 74.8413 33.9858 73.1371 33.9981C72.0428 34.0059 70.3993 33.9886 69.4848 33.9601L69.4837 33.9596ZM74.6404 32.5584C75.3049 32.4393 75.6428 32.256 75.8749 31.8888C76.1081 31.5194 76.2016 31.098 76.2016 30.415C76.2016 29.9025 76.2077 29.8812 76.4231 29.6649C76.6018 29.4855 76.6958 29.4425 76.9073 29.4425C77.2429 29.4425 77.5429 29.6845 77.6359 30.0299C77.6726 30.1674 77.7394 30.2926 77.7839 30.3077C77.8285 30.3228 78.7602 30.3155 79.8538 30.292C82.8354 30.2278 83.0458 30.1506 83.4293 28.9842C83.8629 27.6669 83.8846 27.4617 84.1974 21.8124C84.3343 19.3392 84.395 3.75195 84.2686 3.64912C84.1751 3.57366 82.595 3.5161 79.3975 3.4725C78.0878 3.45462 76.7821 3.42444 76.4949 3.40599C75.5832 3.34675 70.4688 3.18075 67.4617 3.11313C64.3532 3.04326 63.9858 3.06394 63.5701 3.33054C62.7547 3.85423 62.6217 4.36339 62.5371 7.27919C62.502 8.49928 62.5098 8.74184 62.5899 8.82232C62.6556 8.88827 63.0413 8.95255 63.85 9.03135C64.4912 9.09395 65.453 9.19232 65.9878 9.24932C67.1867 9.37787 67.1349 9.41532 67.1355 8.42215C67.1361 7.08469 67.3548 6.42575 67.9954 5.82996C68.5976 5.26993 68.7357 5.24367 71.0488 5.2487C72.1068 5.25093 73.3692 5.28726 73.8534 5.32918C76.8155 5.58683 76.9313 5.60081 77.234 5.73494C77.9765 6.06358 78.4635 6.60795 78.8014 7.48766C79.2116 8.55573 79.2589 9.50977 79.1386 14.3124C79.1041 15.6991 79.0613 17.9688 79.044 19.3554C79.0084 22.1695 78.9622 22.5713 78.5926 23.2471C78.2559 23.8635 77.7305 24.1625 76.6841 24.3347C76.4726 24.3693 75.6344 24.3978 74.8213 24.3984C74.0081 24.3984 73.2963 24.4168 73.2395 24.4386C73.1532 24.4716 73.1365 24.6091 73.1365 25.2764C73.1365 26.4753 72.9161 27.1365 72.2254 28.0089C71.8113 28.5315 71.4178 28.8568 70.869 29.1278L70.4416 29.3391L69.2121 29.3659C67.8334 29.3955 66.383 29.3139 64.1684 29.082C63.3435 28.9954 62.0228 28.892 61.2336 28.8517C60.4443 28.8115 59.3879 28.7545 58.8854 28.7243C58.2425 28.6863 57.9459 28.6913 57.8841 28.7422C57.7644 28.84 57.844 29.9181 58.0115 30.4625C58.2253 31.1578 58.8497 31.6926 59.8315 32.0202C60.2601 32.1632 60.5111 32.1923 61.8536 32.2549C62.6968 32.294 63.9881 32.3555 64.7233 32.3907C69.2472 32.6092 73.9157 32.688 74.6415 32.5578L74.6404 32.5584ZM70.2668 27.739C70.5779 27.5797 71.1601 26.9425 71.4078 26.4915L71.6037 26.1349L71.6249 23.3186C71.6365 21.7699 71.626 19.9635 71.6015 19.3057C71.5608 18.218 71.5453 18.1029 71.4317 18.0414C71.3627 18.0045 70.6542 17.9565 69.8572 17.9352L68.4078 17.8961L67.3893 18.929L66.3708 19.9618L65.1068 19.916C63.6246 19.8618 62.5577 19.7383 62.2332 19.5829C62.0796 19.5091 61.8174 19.2325 61.4545 18.7607C61.0137 18.1873 60.8634 18.0375 60.6792 17.9872C60.3931 17.909 57.7883 17.7536 57.6503 17.8073C57.5601 17.8419 57.5485 18.1588 57.549 20.5503C57.5496 23.9183 57.6514 27.0873 57.7627 27.1951C57.8162 27.2466 58.6126 27.3069 60.19 27.3779C61.4812 27.436 63.0224 27.526 63.614 27.5774C67.2529 27.8949 67.8435 27.929 69.088 27.891C69.8377 27.8681 70.0776 27.8373 70.2674 27.7401L70.2668 27.739ZM88.798 25.3463C89.5121 25.0953 89.9774 24.5946 90.3637 23.6612C90.6709 22.919 91.1301 20.9634 91.3355 19.5214C91.5765 17.8307 91.7524 14.8875 91.7056 13.3349C91.6744 12.3009 91.6472 12.0891 91.4385 11.2508C91.3104 10.7377 91.1613 10.2308 91.1067 10.1246C90.785 9.50027 90.2646 8.93857 89.7581 8.66974C89.5355 8.55126 89.368 8.51884 88.9789 8.51772C88.5392 8.5166 88.4324 8.54231 88.0367 8.74519C87.6777 8.92963 87.4773 9.10122 87.0131 9.621C86.1448 10.5935 85.8933 11.2021 85.827 12.4848C85.7953 13.1013 85.7257 16.3994 85.6896 18.996C85.6851 19.3202 85.6595 20.3223 85.6322 21.2227L85.5833 22.8603L85.8159 23.3382C86.1142 23.9513 86.3686 24.3196 86.7749 24.7276C87.4133 25.3687 88.1207 25.5849 88.798 25.3474V25.3463ZM75.689 22.8961C76.25 22.8648 76.771 22.8061 76.8467 22.7653C77.0815 22.639 77.2318 22.2377 77.3047 21.5446C77.342 21.1869 77.4027 19.2587 77.4389 17.2595C77.475 15.2603 77.5196 13.2416 77.5374 12.7732C77.6531 9.72607 77.6537 9.44159 77.5446 8.81282C77.4099 8.03762 77.1717 7.53629 76.8216 7.29093C76.5728 7.11655 76.491 7.10202 75.0283 6.96956C73.889 6.86616 72.9484 6.82816 71.3649 6.82145L69.2344 6.81251L69.0574 6.97627C68.6755 7.32949 68.6711 7.36526 68.6616 10.1531C68.6538 12.425 68.5598 15.3872 68.4724 16.1132C68.4184 16.5643 68.3728 16.5525 70.21 16.5704C71.9933 16.5877 72.4035 16.6447 72.6061 16.9029C72.7547 17.093 72.8382 17.9514 72.9757 20.7147C73.0308 21.8224 73.0881 22.7636 73.1031 22.8072C73.1293 22.8821 73.4515 22.9184 74.3109 22.9425C74.5079 22.948 75.1285 22.9268 75.6895 22.8961H75.689ZM66.4737 17.9146L67.0592 17.2595L67.096 16.7845C67.1672 15.8656 67.2079 11.0713 67.145 10.9786C67.1082 10.9238 66.9301 10.8774 66.7019 10.8618C66.1559 10.8254 64.5769 10.6645 63.5484 10.5404C63.0641 10.4817 62.2716 10.4297 61.7873 10.4247C60.9887 10.4158 60.8812 10.4286 60.6319 10.5627C60.3291 10.7248 60.2601 10.8226 60.1967 11.177C60.1454 11.4609 60.1332 16.3167 60.1833 16.3977C60.2022 16.4284 60.4376 16.4709 60.7054 16.491C60.9736 16.5112 61.2402 16.5548 61.2981 16.5872C61.356 16.6196 61.7723 17.0566 62.2237 17.5585L63.0435 18.4707L64.1929 18.5059C64.8251 18.5249 65.4652 18.5472 65.6155 18.5551C65.8843 18.569 65.8982 18.559 66.4743 17.914L66.4737 17.9146Z" fill="white"/>
<defs>
<clipPath id="clip0_5141_20904">
<rect width="149.629" height="22" fill="white" transform="translate(0.185547 42)"/>
</clipPath>
</defs>
</svg>
