<svg width="122" height="140" viewBox="0 0 122 140" fill="none" xmlns="http://www.w3.org/2000/svg">
<g id="personal data" clip-path="url(#clip0_3534_21454)">
<path id="Vector" d="M61.0066 52.5905C68.5467 52.5905 76.0868 52.6112 83.627 52.5822C92.6742 52.5532 99.4608 56.2137 103.93 63.6633C108.048 70.5284 111.338 77.7873 115.058 84.843C116.806 88.1636 118.493 91.5132 120.14 94.8836C121.415 97.487 122.27 100.211 121.871 103.125C121.363 106.819 119.063 109.335 115.667 110.973C111.536 112.967 107.089 114.248 102.812 115.906C101.502 116.412 100.179 116.892 98.8299 117.295C96.0478 118.124 93.3095 117.97 90.7816 116.548C89.8571 116.026 89.5592 116.262 89.0772 117.025C82.6412 127.186 73.147 134.13 62.321 139.66C61.4272 140.116 60.5991 140.103 59.6922 139.643C48.8048 134.101 39.3019 127.099 32.8439 116.88C32.4365 116.233 32.1736 116.034 31.3894 116.478C28.6423 118.028 25.685 118.198 22.7276 117.145C17.6322 115.334 12.5281 113.526 7.52032 111.516C3.34937 109.849 0.43146 107.047 0.0721981 102.503C-0.133721 99.9205 0.57166 97.4497 1.73707 95.1572C6.78865 85.2203 11.849 75.2833 17.0539 65.421C19.376 61.0226 22.5042 57.1879 27.306 54.8871C30.684 53.2662 34.3117 52.6195 38.062 52.6029C45.7117 52.5656 53.3613 52.5905 61.0066 52.5905ZM61.0504 56.5951V56.6532C52.91 56.6532 44.7653 56.5495 36.6293 56.6905C31.5296 56.7817 27.2228 58.7301 24.0113 62.602C22.3202 64.6417 20.9138 66.8513 19.7177 69.1728C15.205 77.9282 10.7055 86.6878 6.23661 95.464C5.62324 96.6662 5.08435 97.9223 4.70756 99.2074C3.56405 103.1 4.66813 105.844 8.38781 107.461C13.7285 109.783 19.2533 111.715 24.8087 113.539C27.0169 114.264 29.0103 113.597 30.6051 111.98C34.0312 108.502 33.0323 103.055 28.4758 101.056C24.7255 99.4106 20.8481 98.0176 17.0408 96.4879C15.5643 95.8951 15.1218 95.0038 15.6256 93.8348C16.1426 92.6367 17.1459 92.2263 18.583 92.7818C22.5129 94.2991 26.4824 95.7459 30.3247 97.4538C35.7224 99.85 38.2241 105.675 36.0335 110.898C35.3412 112.548 35.6961 113.642 36.5548 114.973C41.5889 122.808 48.6909 128.575 56.8313 133.33C60.9628 135.742 60.954 135.767 65.0987 133.371C73.6509 128.425 81.0201 122.331 86.0717 113.982C86.5887 113.128 86.6237 112.473 86.2119 111.57C83.9074 106.512 85.6905 100.712 90.6151 98.0384C94.7729 95.7832 99.3644 94.3695 103.807 92.6699C104.999 92.2138 105.963 92.7445 106.418 93.8887C106.852 94.9789 106.436 95.8288 105.362 96.3387C104.587 96.7076 103.754 96.973 102.953 97.2922C99.7894 98.5441 96.5779 99.7007 93.4716 101.073C89.6862 102.748 88.4157 106.383 90.1287 110.098C91.6929 113.489 94.7685 114.546 98.8387 113.062C102.953 111.561 107.067 110.056 111.163 108.518C117.801 106.027 119.181 102.868 116.372 96.662C116.158 96.1894 115.93 95.721 115.689 95.2567C114.173 92.2885 112.688 89.2995 111.124 86.352C107.483 79.4911 104.285 72.4229 100.293 65.7237C96.6437 59.6006 91.1496 56.5246 83.6752 56.5827C76.135 56.6366 68.5949 56.5951 61.0548 56.5951H61.0504Z" fill="#F0DE00"/>
<path id="Vector_2" d="M61.0766 5.94861e-05C75.0046 0.0290785 86.2951 10.7329 86.2513 23.8578C86.2075 36.8915 74.8732 47.4212 60.9364 47.3715C46.9603 47.3217 35.6873 36.6635 35.7355 23.5469C35.7837 10.563 47.1837 -0.0289595 61.0766 5.94861e-05ZM60.9627 43.3627C72.6344 43.3793 81.9971 34.6487 82.0102 23.7417C82.0234 12.8596 72.6212 3.99639 61.0504 3.98395C49.4663 3.96737 39.9853 12.8223 39.9853 23.6547C39.9853 34.5617 49.3393 43.3503 60.9671 43.3669L60.9627 43.3627Z" fill="#F0DE00"/>
<path id="Vector_3" d="M82.9829 93.1056C83.0398 94.2539 82.5228 95.2944 81.594 96.1775C74.3649 103.072 67.1534 109.982 59.8981 116.851C57.7513 118.883 55.6439 118.879 53.4489 116.843C49.0851 112.793 44.7609 108.697 40.4716 104.576C38.3423 102.528 38.3642 100.219 40.4322 98.1176C41.51 97.0231 42.614 95.9453 43.7619 94.9131C45.8518 93.0268 48.3885 93.0227 50.4652 94.9048C52.1214 96.4055 53.795 97.8979 55.3153 99.5146C56.3186 100.584 56.8925 100.704 58.0404 99.5727C62.2333 95.4354 66.5663 91.4266 70.8599 87.3764C73.6683 84.7274 76.2445 84.7315 79.0573 87.364C79.9116 88.1641 80.7747 88.9517 81.6071 89.7726C82.5141 90.6639 82.996 91.7334 82.9785 93.1014L82.9829 93.1056ZM78.9171 92.9812C78.641 92.8569 78.3694 92.7822 78.1679 92.6288C77.445 92.0775 76.6651 91.5676 76.0561 90.9167C74.9564 89.7352 74.1766 89.7974 72.9849 90.9665C68.2794 95.5722 63.4513 100.066 58.6582 104.589C57.1905 105.973 56.2134 105.973 54.7632 104.618C53.3218 103.275 51.9154 101.907 50.4784 100.563C49.44 99.5934 48.3447 97.873 47.3283 97.9103C46.2417 97.9518 45.2866 99.7261 44.1606 100.613C43.2187 101.359 43.4509 101.786 44.2176 102.495C48.0775 106.077 51.8891 109.7 55.6833 113.344C56.3755 114.008 56.783 114.207 57.6067 113.411C64.3713 106.877 71.1929 100.402 77.9926 93.9057C78.2204 93.686 78.4395 93.458 78.9171 92.9812Z" fill="#F0DE00"/>
<path id="Vector_4" d="M96.7884 82.6373C96.7884 84.6023 96.7665 86.5673 96.7927 88.5282C96.8103 89.8506 96.1268 90.5803 94.7818 90.6963C93.52 90.8083 92.5999 89.9335 92.578 88.5282C92.5298 85.4273 92.5254 82.3264 92.578 79.2255C92.5955 78.3094 92.3195 77.8782 91.3644 77.5673C81.5811 74.3918 71.8153 71.1666 62.0495 67.9413C61.3441 67.7092 60.7132 67.6967 59.999 67.933C50.2376 71.1666 40.4806 74.4042 30.6972 77.5715C29.637 77.9155 29.4267 78.3964 29.4442 79.3416C29.5055 82.2352 29.4749 85.1288 29.4617 88.0266C29.453 89.7263 28.7388 90.6051 27.3806 90.6424C25.9523 90.6797 25.2119 89.7926 25.2075 87.9934C25.1988 84.3743 25.2426 80.7553 25.1856 77.1403C25.1637 75.735 25.7683 74.9722 27.1616 74.5162C38.0709 70.9551 48.9714 67.3568 59.8632 63.7543C60.6255 63.5014 61.2959 63.4682 62.0714 63.7253C73.0157 67.3443 83.9645 70.9468 94.922 74.5245C96.2451 74.9556 96.8453 75.7225 96.8015 77.0574C96.7402 78.9146 96.784 80.7801 96.784 82.6373H96.7884Z" fill="#F0DE00"/>
</g>
<defs>
<clipPath id="clip0_3534_21454">
<rect width="121.926" height="140" fill="white" transform="translate(0.0371094)"/>
</clipPath>
</defs>
</svg>
